<svg width="40" height="60" viewBox="0 0 40 60" fill="none" xmlns="http://www.w3.org/2000/svg">
  <path d="M20 10C20 4.47715 15.5228 0 10 0C4.47715 0 0 4.47715 0 10C0 15.5228 4.47715 20 10 20H20V10Z" fill="#F24E1E"/>
  <path d="M40 10C40 4.47715 35.5228 0 30 0C24.4772 0 20 4.47715 20 10V20H30C35.5228 20 40 15.5228 40 10Z" fill="#FF7262"/>
  <path d="M20 30C20 24.4772 15.5228 20 10 20C4.47715 20 0 24.4772 0 30C0 35.5228 4.47715 40 10 40C15.5228 40 20 35.5228 20 30Z" fill="#A259FF"/>
  <path d="M0 50C0 44.4772 4.47715 40 10 40C15.5228 40 20 44.4772 20 50C20 55.5228 15.5228 60 10 60C4.47715 60 0 55.5228 0 50Z" fill="#1ABCFE"/>
  <path d="M40 30C40 24.4772 35.5228 20 30 20C24.4772 20 20 24.4772 20 30C20 35.5228 24.4772 40 30 40C35.5228 40 40 35.5228 40 30Z" fill="#0ACF83"/>
</svg>
